<mxfile host="65bd71144e" scale="1" border="0" disableSvgWarning="true">
    <diagram name="compact" id="c3mLQUKTovnxnCPYDYIz">
        <mxGraphModel dx="917" dy="617" grid="1" gridSize="10" guides="1" tooltips="1" connect="1" arrows="1" fold="1" page="1" pageScale="1" pageWidth="1169" pageHeight="827" math="0" shadow="0">
            <root>
                <mxCell id="9smKgQkn0wAmeSMFdJ4S-0"/>
                <mxCell id="9smKgQkn0wAmeSMFdJ4S-1" parent="9smKgQkn0wAmeSMFdJ4S-0"/>
                <mxCell id="9smKgQkn0wAmeSMFdJ4S-5" value="" style="endArrow=none;html=1;fontColor=#FF0000;strokeColor=#999999;dashed=1;" edge="1" parent="9smKgQkn0wAmeSMFdJ4S-1">
                    <mxGeometry width="50" height="50" relative="1" as="geometry">
                        <mxPoint x="198" y="310" as="sourcePoint"/>
                        <mxPoint x="650" y="310.67" as="targetPoint"/>
                    </mxGeometry>
                </mxCell>
                <mxCell id="9smKgQkn0wAmeSMFdJ4S-20" value="" style="endArrow=none;html=1;fillColor=#f8cecc;strokeColor=#000000;endFill=0;startArrow=oval;startFill=1;dashed=1;" edge="1" parent="9smKgQkn0wAmeSMFdJ4S-1">
                    <mxGeometry width="50" height="50" relative="1" as="geometry">
                        <mxPoint x="600" y="350" as="sourcePoint"/>
                        <mxPoint x="600" y="280" as="targetPoint"/>
                    </mxGeometry>
                </mxCell>
                <mxCell id="9smKgQkn0wAmeSMFdJ4S-2" value="" style="endArrow=none;html=1;fontColor=#FF0000;strokeColor=#FF0000;rounded=1;jumpStyle=none;" edge="1" parent="9smKgQkn0wAmeSMFdJ4S-1">
                    <mxGeometry width="50" height="50" relative="1" as="geometry">
                        <mxPoint x="400" y="338" as="sourcePoint"/>
                        <mxPoint x="400" y="310" as="targetPoint"/>
                    </mxGeometry>
                </mxCell>
                <mxCell id="9smKgQkn0wAmeSMFdJ4S-4" value="" style="endArrow=none;html=1;fontColor=#FF0000;strokeColor=#999999;dashed=1;" edge="1" parent="9smKgQkn0wAmeSMFdJ4S-1">
                    <mxGeometry width="50" height="50" relative="1" as="geometry">
                        <mxPoint x="198" y="340" as="sourcePoint"/>
                        <mxPoint x="650" y="340" as="targetPoint"/>
                    </mxGeometry>
                </mxCell>
                <mxCell id="9smKgQkn0wAmeSMFdJ4S-6" value="" style="endArrow=classic;html=1;endFill=1;entryX=0;entryY=0.5;entryDx=0;entryDy=0;" edge="1" parent="9smKgQkn0wAmeSMFdJ4S-1" target="9smKgQkn0wAmeSMFdJ4S-7">
                    <mxGeometry width="50" height="50" relative="1" as="geometry">
                        <mxPoint x="200" y="350" as="sourcePoint"/>
                        <mxPoint x="620" y="350" as="targetPoint"/>
                    </mxGeometry>
                </mxCell>
                <mxCell id="9smKgQkn0wAmeSMFdJ4S-7" value="time" style="text;html=1;strokeColor=none;fillColor=none;align=center;verticalAlign=middle;whiteSpace=wrap;rounded=0;" vertex="1" parent="9smKgQkn0wAmeSMFdJ4S-1">
                    <mxGeometry x="680" y="335" width="60" height="30" as="geometry"/>
                </mxCell>
                <mxCell id="9smKgQkn0wAmeSMFdJ4S-8" value="" style="endArrow=none;html=1;fillColor=#f8cecc;strokeColor=#FF0000;endFill=0;startArrow=oval;startFill=1;dashed=1;" edge="1" parent="9smKgQkn0wAmeSMFdJ4S-1">
                    <mxGeometry width="50" height="50" relative="1" as="geometry">
                        <mxPoint x="440" y="310" as="sourcePoint"/>
                        <mxPoint x="440" y="280" as="targetPoint"/>
                    </mxGeometry>
                </mxCell>
                <mxCell id="9smKgQkn0wAmeSMFdJ4S-9" value="" style="shape=curlyBracket;whiteSpace=wrap;html=1;rounded=1;flipH=1;rotation=90;" vertex="1" parent="9smKgQkn0wAmeSMFdJ4S-1">
                    <mxGeometry x="410.79" y="347.22" width="15.75" height="37.32" as="geometry"/>
                </mxCell>
                <mxCell id="9smKgQkn0wAmeSMFdJ4S-10" value="" style="shape=curlyBracket;whiteSpace=wrap;html=1;rounded=1;flipH=1;rotation=90;" vertex="1" parent="9smKgQkn0wAmeSMFdJ4S-1">
                    <mxGeometry x="513.32" y="286.82" width="15.5" height="157.87" as="geometry"/>
                </mxCell>
                <mxCell id="9smKgQkn0wAmeSMFdJ4S-11" value="6h" style="text;html=1;strokeColor=none;fillColor=none;align=center;verticalAlign=middle;whiteSpace=wrap;rounded=0;" vertex="1" parent="9smKgQkn0wAmeSMFdJ4S-1">
                    <mxGeometry x="389.01" y="377" width="60" height="30" as="geometry"/>
                </mxCell>
                <mxCell id="9smKgQkn0wAmeSMFdJ4S-12" value="24h" style="text;html=1;strokeColor=none;fillColor=none;align=center;verticalAlign=middle;whiteSpace=wrap;rounded=0;" vertex="1" parent="9smKgQkn0wAmeSMFdJ4S-1">
                    <mxGeometry x="491" y="377" width="60" height="30" as="geometry"/>
                </mxCell>
                <mxCell id="9smKgQkn0wAmeSMFdJ4S-13" value="Sepsis onset" style="text;html=1;strokeColor=none;fillColor=none;align=center;verticalAlign=middle;whiteSpace=wrap;rounded=0;fontColor=#FF0000;" vertex="1" parent="9smKgQkn0wAmeSMFdJ4S-1">
                    <mxGeometry x="400" y="245.88" width="80" height="30" as="geometry"/>
                </mxCell>
                <mxCell id="9smKgQkn0wAmeSMFdJ4S-14" value="" style="endArrow=none;html=1;fontColor=#FF0000;strokeColor=#FF0000;" edge="1" parent="9smKgQkn0wAmeSMFdJ4S-1">
                    <mxGeometry width="50" height="50" relative="1" as="geometry">
                        <mxPoint x="220" y="338" as="sourcePoint"/>
                        <mxPoint x="400" y="338" as="targetPoint"/>
                    </mxGeometry>
                </mxCell>
                <mxCell id="9smKgQkn0wAmeSMFdJ4S-15" value="" style="endArrow=none;html=1;fontColor=#FF0000;strokeColor=#FF0000;" edge="1" parent="9smKgQkn0wAmeSMFdJ4S-1">
                    <mxGeometry width="50" height="50" relative="1" as="geometry">
                        <mxPoint x="400" y="310.71" as="sourcePoint"/>
                        <mxPoint x="600" y="310.71" as="targetPoint"/>
                    </mxGeometry>
                </mxCell>
                <mxCell id="9smKgQkn0wAmeSMFdJ4S-16" value="0" style="text;html=1;strokeColor=none;fillColor=none;align=center;verticalAlign=middle;whiteSpace=wrap;rounded=0;" vertex="1" parent="9smKgQkn0wAmeSMFdJ4S-1">
                    <mxGeometry x="154" y="325" width="60" height="30" as="geometry"/>
                </mxCell>
                <mxCell id="9smKgQkn0wAmeSMFdJ4S-17" value="1" style="text;html=1;strokeColor=none;fillColor=none;align=center;verticalAlign=middle;whiteSpace=wrap;rounded=0;" vertex="1" parent="9smKgQkn0wAmeSMFdJ4S-1">
                    <mxGeometry x="154" y="295.75" width="60" height="30" as="geometry"/>
                </mxCell>
                <mxCell id="9smKgQkn0wAmeSMFdJ4S-18" value="" style="endArrow=classic;html=1;fontColor=#FF0000;strokeColor=#000000;" edge="1" parent="9smKgQkn0wAmeSMFdJ4S-1">
                    <mxGeometry width="50" height="50" relative="1" as="geometry">
                        <mxPoint x="200" y="350" as="sourcePoint"/>
                        <mxPoint x="200" y="270" as="targetPoint"/>
                    </mxGeometry>
                </mxCell>
                <mxCell id="9smKgQkn0wAmeSMFdJ4S-19" value="label" style="text;html=1;strokeColor=none;fillColor=none;align=center;verticalAlign=middle;whiteSpace=wrap;rounded=0;" vertex="1" parent="9smKgQkn0wAmeSMFdJ4S-1">
                    <mxGeometry x="170" y="240" width="60" height="30" as="geometry"/>
                </mxCell>
                <mxCell id="9smKgQkn0wAmeSMFdJ4S-21" value="Cut off" style="text;html=1;strokeColor=none;fillColor=none;align=center;verticalAlign=middle;whiteSpace=wrap;rounded=0;fontColor=#000000;" vertex="1" parent="9smKgQkn0wAmeSMFdJ4S-1">
                    <mxGeometry x="560" y="245.88" width="80" height="30" as="geometry"/>
                </mxCell>
                <mxCell id="9smKgQkn0wAmeSMFdJ4S-22" value="&lt;font style=&quot;font-size: 16px&quot;&gt;Sepsis Patient&lt;/font&gt;" style="text;strokeColor=none;fillColor=none;html=1;fontSize=16;fontStyle=0;verticalAlign=middle;align=left;rounded=0;glass=0;sketch=1;fontColor=#000000;" vertex="1" parent="9smKgQkn0wAmeSMFdJ4S-1">
                    <mxGeometry x="760" y="253.88" width="200" height="40" as="geometry"/>
                </mxCell>
                <mxCell id="9smKgQkn0wAmeSMFdJ4S-32" value="&lt;font style=&quot;font-size: 16px&quot;&gt;Regular Patient&lt;/font&gt;" style="text;strokeColor=none;fillColor=none;html=1;fontSize=16;fontStyle=0;verticalAlign=middle;align=left;rounded=0;glass=0;sketch=1;fontColor=#000000;" vertex="1" parent="9smKgQkn0wAmeSMFdJ4S-1">
                    <mxGeometry x="760" y="288" width="200" height="40" as="geometry"/>
                </mxCell>
                <mxCell id="9smKgQkn0wAmeSMFdJ4S-34" value="" style="endArrow=none;html=1;fontColor=#FF0000;strokeColor=#007FFF;" edge="1" parent="9smKgQkn0wAmeSMFdJ4S-1">
                    <mxGeometry width="50" height="50" relative="1" as="geometry">
                        <mxPoint x="220" y="341.8287804878049" as="sourcePoint"/>
                        <mxPoint x="600" y="341.94000000000005" as="targetPoint"/>
                    </mxGeometry>
                </mxCell>
                <mxCell id="ZqOj9wxSRryqDJfWRJzW-0" value="" style="endArrow=none;html=1;fillColor=#f8cecc;strokeColor=#FF0000;endFill=0;startArrow=none;startFill=0;dashed=1;" edge="1" parent="9smKgQkn0wAmeSMFdJ4S-1">
                    <mxGeometry width="50" height="50" relative="1" as="geometry">
                        <mxPoint x="440" y="350" as="sourcePoint"/>
                        <mxPoint x="440" y="310" as="targetPoint"/>
                    </mxGeometry>
                </mxCell>
                <mxCell id="ZqOj9wxSRryqDJfWRJzW-1" value="" style="whiteSpace=wrap;html=1;aspect=fixed;fontSize=16;strokeColor=none;fillColor=#FF0000;" vertex="1" parent="9smKgQkn0wAmeSMFdJ4S-1">
                    <mxGeometry x="745" y="268.88" width="10" height="10" as="geometry"/>
                </mxCell>
                <mxCell id="ZqOj9wxSRryqDJfWRJzW-2" value="" style="whiteSpace=wrap;html=1;aspect=fixed;fontSize=16;strokeColor=none;fillColor=#007FFF;" vertex="1" parent="9smKgQkn0wAmeSMFdJ4S-1">
                    <mxGeometry x="744" y="303" width="10" height="10" as="geometry"/>
                </mxCell>
            </root>
        </mxGraphModel>
    </diagram>
    <diagram id="howsjhpP6vLv215lpyY8" name="old">
        <mxGraphModel dx="1054" dy="710" grid="1" gridSize="10" guides="1" tooltips="1" connect="1" arrows="1" fold="1" page="1" pageScale="1" pageWidth="1169" pageHeight="827" math="0" shadow="0">
            <root>
                <mxCell id="0"/>
                <mxCell id="1" parent="0"/>
                <mxCell id="38" value="" style="endArrow=none;html=1;fontColor=#FF0000;strokeColor=#007FFF;" parent="1" edge="1">
                    <mxGeometry width="50" height="50" relative="1" as="geometry">
                        <mxPoint x="400" y="340" as="sourcePoint"/>
                        <mxPoint x="400" y="310" as="targetPoint"/>
                    </mxGeometry>
                </mxCell>
                <mxCell id="64" value="" style="endArrow=none;html=1;fontColor=#FF0000;strokeColor=#999999;dashed=1;" parent="1" edge="1">
                    <mxGeometry width="50" height="50" relative="1" as="geometry">
                        <mxPoint x="199" y="474.9599999999999" as="sourcePoint"/>
                        <mxPoint x="649" y="474.8799999999999" as="targetPoint"/>
                    </mxGeometry>
                </mxCell>
                <mxCell id="60" value="" style="endArrow=none;html=1;fontColor=#FF0000;strokeColor=#999999;dashed=1;" parent="1" edge="1">
                    <mxGeometry width="50" height="50" relative="1" as="geometry">
                        <mxPoint x="200" y="340.08" as="sourcePoint"/>
                        <mxPoint x="650" y="340" as="targetPoint"/>
                    </mxGeometry>
                </mxCell>
                <mxCell id="59" value="" style="endArrow=none;html=1;fontColor=#FF0000;strokeColor=#999999;dashed=1;" parent="1" edge="1">
                    <mxGeometry width="50" height="50" relative="1" as="geometry">
                        <mxPoint x="200" y="310.67" as="sourcePoint"/>
                        <mxPoint x="650" y="310.67" as="targetPoint"/>
                    </mxGeometry>
                </mxCell>
                <mxCell id="22" value="" style="endArrow=openThin;html=1;endFill=0;entryX=0;entryY=0.5;entryDx=0;entryDy=0;" parent="1" target="23" edge="1">
                    <mxGeometry width="50" height="50" relative="1" as="geometry">
                        <mxPoint x="200" y="350" as="sourcePoint"/>
                        <mxPoint x="620" y="350" as="targetPoint"/>
                    </mxGeometry>
                </mxCell>
                <mxCell id="23" value="time" style="text;html=1;strokeColor=none;fillColor=none;align=center;verticalAlign=middle;whiteSpace=wrap;rounded=0;" parent="1" vertex="1">
                    <mxGeometry x="680" y="335" width="60" height="30" as="geometry"/>
                </mxCell>
                <mxCell id="24" value="" style="endArrow=none;html=1;fillColor=#f8cecc;strokeColor=#FF0000;endFill=0;startArrow=oval;startFill=1;dashed=1;" parent="1" edge="1">
                    <mxGeometry width="50" height="50" relative="1" as="geometry">
                        <mxPoint x="440" y="350" as="sourcePoint"/>
                        <mxPoint x="440" y="280" as="targetPoint"/>
                    </mxGeometry>
                </mxCell>
                <mxCell id="26" value="" style="shape=curlyBracket;whiteSpace=wrap;html=1;rounded=1;flipH=1;rotation=90;" parent="1" vertex="1">
                    <mxGeometry x="411.57" y="346.44" width="15.75" height="38.88" as="geometry"/>
                </mxCell>
                <mxCell id="27" value="" style="shape=curlyBracket;whiteSpace=wrap;html=1;rounded=1;flipH=1;rotation=90;" parent="1" vertex="1">
                    <mxGeometry x="512.63" y="286.13" width="15.5" height="159.25" as="geometry"/>
                </mxCell>
                <mxCell id="28" value="6h" style="text;html=1;strokeColor=none;fillColor=none;align=center;verticalAlign=middle;whiteSpace=wrap;rounded=0;" parent="1" vertex="1">
                    <mxGeometry x="389.01" y="368" width="60" height="30" as="geometry"/>
                </mxCell>
                <mxCell id="29" value="24h" style="text;html=1;strokeColor=none;fillColor=none;align=center;verticalAlign=middle;whiteSpace=wrap;rounded=0;" parent="1" vertex="1">
                    <mxGeometry x="491" y="368" width="60" height="30" as="geometry"/>
                </mxCell>
                <mxCell id="35" value="&amp;nbsp;Sepsis onset" style="text;html=1;strokeColor=none;fillColor=none;align=left;verticalAlign=middle;whiteSpace=wrap;rounded=0;fontColor=#FF0000;" parent="1" vertex="1">
                    <mxGeometry x="440" y="270" width="80" height="30" as="geometry"/>
                </mxCell>
                <mxCell id="37" value="" style="endArrow=none;html=1;fontColor=#FF0000;strokeColor=#007FFF;" parent="1" source="49" edge="1">
                    <mxGeometry width="50" height="50" relative="1" as="geometry">
                        <mxPoint x="200" y="340" as="sourcePoint"/>
                        <mxPoint x="400" y="340" as="targetPoint"/>
                    </mxGeometry>
                </mxCell>
                <mxCell id="40" value="" style="endArrow=none;html=1;fontColor=#FF0000;strokeColor=#FF0000;" parent="1" edge="1">
                    <mxGeometry width="50" height="50" relative="1" as="geometry">
                        <mxPoint x="400" y="310.71" as="sourcePoint"/>
                        <mxPoint x="600" y="310.71" as="targetPoint"/>
                    </mxGeometry>
                </mxCell>
                <mxCell id="49" value="0" style="text;html=1;strokeColor=none;fillColor=none;align=center;verticalAlign=middle;whiteSpace=wrap;rounded=0;" parent="1" vertex="1">
                    <mxGeometry x="160" y="325" width="60" height="30" as="geometry"/>
                </mxCell>
                <mxCell id="50" value="1" style="text;html=1;strokeColor=none;fillColor=none;align=center;verticalAlign=middle;whiteSpace=wrap;rounded=0;" parent="1" vertex="1">
                    <mxGeometry x="160" y="295.75" width="60" height="30" as="geometry"/>
                </mxCell>
                <mxCell id="53" value="" style="endArrow=classic;html=1;fontColor=#FF0000;strokeColor=#000000;" parent="1" edge="1">
                    <mxGeometry width="50" height="50" relative="1" as="geometry">
                        <mxPoint x="200" y="350" as="sourcePoint"/>
                        <mxPoint x="200" y="270" as="targetPoint"/>
                    </mxGeometry>
                </mxCell>
                <mxCell id="54" value="label" style="text;html=1;strokeColor=none;fillColor=none;align=center;verticalAlign=middle;whiteSpace=wrap;rounded=0;" parent="1" vertex="1">
                    <mxGeometry x="170" y="240" width="60" height="30" as="geometry"/>
                </mxCell>
                <mxCell id="55" value="" style="endArrow=none;html=1;fillColor=#f8cecc;strokeColor=#000000;endFill=0;startArrow=oval;startFill=1;dashed=1;" parent="1" edge="1">
                    <mxGeometry width="50" height="50" relative="1" as="geometry">
                        <mxPoint x="600" y="350" as="sourcePoint"/>
                        <mxPoint x="600" y="280" as="targetPoint"/>
                    </mxGeometry>
                </mxCell>
                <mxCell id="56" value="&amp;nbsp;Cut off" style="text;html=1;strokeColor=none;fillColor=none;align=left;verticalAlign=middle;whiteSpace=wrap;rounded=0;fontColor=#000000;" parent="1" vertex="1">
                    <mxGeometry x="600" y="270" width="80" height="30" as="geometry"/>
                </mxCell>
                <mxCell id="63" value="&lt;font style=&quot;font-size: 19px&quot;&gt;Sepsis Patient:&lt;/font&gt;" style="text;strokeColor=none;fillColor=none;html=1;fontSize=24;fontStyle=1;verticalAlign=middle;align=left;rounded=0;glass=0;sketch=1;fontColor=#000000;" parent="1" vertex="1">
                    <mxGeometry x="7" y="245.88" width="200" height="40" as="geometry"/>
                </mxCell>
                <mxCell id="65" value="" style="endArrow=none;html=1;fontColor=#FF0000;strokeColor=#999999;dashed=1;" parent="1" edge="1">
                    <mxGeometry width="50" height="50" relative="1" as="geometry">
                        <mxPoint x="199" y="445.54999999999995" as="sourcePoint"/>
                        <mxPoint x="649" y="445.54999999999995" as="targetPoint"/>
                    </mxGeometry>
                </mxCell>
                <mxCell id="66" value="" style="endArrow=openThin;html=1;endFill=0;entryX=0;entryY=0.5;entryDx=0;entryDy=0;" parent="1" edge="1">
                    <mxGeometry width="50" height="50" relative="1" as="geometry">
                        <mxPoint x="199" y="484.8799999999999" as="sourcePoint"/>
                        <mxPoint x="679" y="484.8799999999999" as="targetPoint"/>
                    </mxGeometry>
                </mxCell>
                <mxCell id="67" value="time" style="text;html=1;strokeColor=none;fillColor=none;align=center;verticalAlign=middle;whiteSpace=wrap;rounded=0;" parent="1" vertex="1">
                    <mxGeometry x="679" y="469.88" width="60" height="30" as="geometry"/>
                </mxCell>
                <mxCell id="77" value="0" style="text;html=1;strokeColor=none;fillColor=none;align=center;verticalAlign=middle;whiteSpace=wrap;rounded=0;" parent="1" vertex="1">
                    <mxGeometry x="159" y="459.88" width="60" height="30" as="geometry"/>
                </mxCell>
                <mxCell id="78" value="1" style="text;html=1;strokeColor=none;fillColor=none;align=center;verticalAlign=middle;whiteSpace=wrap;rounded=0;" parent="1" vertex="1">
                    <mxGeometry x="159" y="430.63" width="60" height="30" as="geometry"/>
                </mxCell>
                <mxCell id="79" value="" style="endArrow=classic;html=1;fontColor=#FF0000;strokeColor=#000000;" parent="1" edge="1">
                    <mxGeometry width="50" height="50" relative="1" as="geometry">
                        <mxPoint x="199" y="484.8799999999999" as="sourcePoint"/>
                        <mxPoint x="199" y="404.8799999999999" as="targetPoint"/>
                    </mxGeometry>
                </mxCell>
                <mxCell id="80" value="label" style="text;html=1;strokeColor=none;fillColor=none;align=center;verticalAlign=middle;whiteSpace=wrap;rounded=0;" parent="1" vertex="1">
                    <mxGeometry x="170" y="374.88" width="60" height="30" as="geometry"/>
                </mxCell>
                <mxCell id="81" value="" style="endArrow=none;html=1;fillColor=#f8cecc;strokeColor=#000000;endFill=0;startArrow=oval;startFill=1;dashed=1;" parent="1" edge="1">
                    <mxGeometry width="50" height="50" relative="1" as="geometry">
                        <mxPoint x="599" y="484.8799999999999" as="sourcePoint"/>
                        <mxPoint x="599" y="414.8799999999999" as="targetPoint"/>
                    </mxGeometry>
                </mxCell>
                <mxCell id="82" value="&amp;nbsp;Cut off" style="text;html=1;strokeColor=none;fillColor=none;align=left;verticalAlign=middle;whiteSpace=wrap;rounded=0;fontColor=#000000;" parent="1" vertex="1">
                    <mxGeometry x="599" y="404.88" width="80" height="30" as="geometry"/>
                </mxCell>
                <mxCell id="83" value="&lt;font style=&quot;font-size: 19px&quot;&gt;Regular Patient:&lt;/font&gt;" style="text;strokeColor=none;fillColor=none;html=1;fontSize=24;fontStyle=1;verticalAlign=middle;align=left;rounded=0;glass=0;sketch=1;fontColor=#000000;" parent="1" vertex="1">
                    <mxGeometry x="7" y="377.88" width="200" height="40" as="geometry"/>
                </mxCell>
                <mxCell id="74" value="" style="endArrow=none;html=1;fontColor=#FF0000;strokeColor=#007FFF;" parent="1" edge="1">
                    <mxGeometry width="50" height="50" relative="1" as="geometry">
                        <mxPoint x="219" y="474.8287804878049" as="sourcePoint"/>
                        <mxPoint x="599" y="474.94" as="targetPoint"/>
                    </mxGeometry>
                </mxCell>
            </root>
        </mxGraphModel>
    </diagram>
</mxfile>